# xmcd
#
# Track frame offsets: 
#        150
#        16875
#        51075
#        79950
#        100875
#        134625
#        168375
#        184875
#        218700
#
# Disc length: 3366 seconds
#
# Revision: 0
# Processed by: cddbd v1.5.2PL0 Copyright (c) Steve Scherf et al.
# Submitted via: ExactAudioCopyFreeDBPlugin 1.0
#
DISCID=7a0d2409
DTITLE=Lifehouse - Halfway Gone - Promo CdmP
DYEAR=2010
DGENRE=Pop-Folk
TTITLE0=Halfway Gone - Jody den Broeder Radio Edit
TTITLE1=Halfway Gone - Jody den Broeder Club
TTITLE2=Halfway Gone - Jody den Broeder Dub
TTITLE3=Halfway Gone - Morgan Page Radio Edit
TTITLE4=Halfway Gone - Morgan Page Main
TTITLE5=Halfway Gone - Morgan Page Dub
TTITLE6=Halfway Gone - Fred Falke Radio Edit
TTITLE7=Halfway Gone - Fred Falke Main
TTITLE8=Halfway Gone - Fred Falke Instrumental
EXTD=
EXTT0=
EXTT1=
EXTT2=
EXTT3=
EXTT4=
EXTT5=
EXTT6=
EXTT7=
EXTT8=
PLAYORDER=
